<?xml version="1.0" encoding="UTF-8" standalone="no"?>
<!-- Created with Inkscape (http://www.inkscape.org/) -->

<svg
   xmlns:dc="http://purl.org/dc/elements/1.1/"
   xmlns:cc="http://creativecommons.org/ns#"
   xmlns:rdf="http://www.w3.org/1999/02/22-rdf-syntax-ns#"
   xmlns:svg="http://www.w3.org/2000/svg"
   xmlns="http://www.w3.org/2000/svg"
   xmlns:xlink="http://www.w3.org/1999/xlink"
   xmlns:sodipodi="http://sodipodi.sourceforge.net/DTD/sodipodi-0.dtd"
   xmlns:inkscape="http://www.inkscape.org/namespaces/inkscape"
   width="360.00092"
   height="360.00003"
   id="svg2"
   version="1.1"
   inkscape:version="0.47 r22583"
   sodipodi:docname="defpix.svg">
  <defs
     id="defs4">
    <linearGradient
       id="linearGradient3824">
      <stop
         style="stop-color:#7b7b7b;stop-opacity:1;"
         offset="0"
         id="stop3826" />
      <stop
         id="stop3828"
         offset="0.74239773"
         style="stop-color:#7b7b7b;stop-opacity:1;" />
      <stop
         style="stop-color:#2c2c2c;stop-opacity:1;"
         offset="0.80822003"
         id="stop3830" />
      <stop
         id="stop3832"
         offset="0.85991585"
         style="stop-color:#303030;stop-opacity:1;" />
      <stop
         style="stop-color:#303030;stop-opacity:1;"
         offset="0.95678711"
         id="stop3834" />
      <stop
         style="stop-color:#444444;stop-opacity:1;"
         offset="1"
         id="stop3836" />
    </linearGradient>
    <linearGradient
       id="linearGradient3810">
      <stop
         id="stop3812"
         offset="0"
         style="stop-color:#4f4f4f;stop-opacity:1;" />
      <stop
         style="stop-color:#4f4f4f;stop-opacity:1;"
         offset="0.74239773"
         id="stop3814" />
      <stop
         id="stop3816"
         offset="0.80822003"
         style="stop-color:#1d1d1d;stop-opacity:1;" />
      <stop
         style="stop-color:#1d1d1d;stop-opacity:1;"
         offset="0.85991585"
         id="stop3818" />
      <stop
         id="stop3820"
         offset="0.95678711"
         style="stop-color:#151515;stop-opacity:1;" />
      <stop
         id="stop3822"
         offset="1"
         style="stop-color:#333333;stop-opacity:1;" />
    </linearGradient>
    <linearGradient
       id="linearGradient3764">
      <stop
         id="stop3766"
         offset="0"
         style="stop-color:#5f5f5f;stop-opacity:1;" />
      <stop
         style="stop-color:#5f5f5f;stop-opacity:1;"
         offset="0.74239773"
         id="stop3768" />
      <stop
         id="stop3770"
         offset="0.80822003"
         style="stop-color:#2c2c2c;stop-opacity:1;" />
      <stop
         style="stop-color:#303030;stop-opacity:1;"
         offset="0.85991585"
         id="stop3772" />
      <stop
         id="stop3774"
         offset="0.95678711"
         style="stop-color:#303030;stop-opacity:1;" />
      <stop
         id="stop3776"
         offset="1"
         style="stop-color:#444444;stop-opacity:1;" />
    </linearGradient>
    <linearGradient
       id="linearGradient3708">
      <stop
         id="stop3718"
         offset="0"
         style="stop-color:#e7e7e7;stop-opacity:1;" />
      <stop
         style="stop-color:#6e6e6e;stop-opacity:1;"
         offset="0.72935367"
         id="stop3722" />
      <stop
         id="stop3724"
         offset="0.9148975"
         style="stop-color:#2a2a2a;stop-opacity:1;" />
      <stop
         id="stop3720"
         offset="1"
         style="stop-color:#181818;stop-opacity:1;" />
    </linearGradient>
    <linearGradient
       id="linearGradient3680">
      <stop
         style="stop-color:#3b3b3b;stop-opacity:1;"
         offset="0"
         id="stop3682" />
      <stop
         id="stop3692"
         offset="0.74239773"
         style="stop-color:#3b3b3b;stop-opacity:1;" />
      <stop
         style="stop-color:#1d1d1d;stop-opacity:1;"
         offset="0.80822003"
         id="stop3694" />
      <stop
         id="stop3696"
         offset="0.85991585"
         style="stop-color:#1d1d1d;stop-opacity:1;" />
      <stop
         style="stop-color:#151515;stop-opacity:1;"
         offset="0.95678711"
         id="stop3698" />
      <stop
         style="stop-color:#333333;stop-opacity:1;"
         offset="1"
         id="stop3684" />
    </linearGradient>
    <inkscape:perspective
       sodipodi:type="inkscape:persp3d"
       inkscape:vp_x="0 : 526.18109 : 1"
       inkscape:vp_y="0 : 1000 : 0"
       inkscape:vp_z="744.09448 : 526.18109 : 1"
       inkscape:persp3d-origin="372.04724 : 350.78739 : 1"
       id="perspective10" />
    <radialGradient
       inkscape:collect="always"
       xlink:href="#linearGradient3680"
       id="radialGradient3690"
       cx="80"
       cy="80"
       fx="80"
       fy="80"
       r="80"
       gradientUnits="userSpaceOnUse" />
    <radialGradient
       inkscape:collect="always"
       xlink:href="#linearGradient3708"
       id="radialGradient3706"
       cx="80"
       cy="80"
       fx="80"
       fy="80"
       r="88"
       gradientUnits="userSpaceOnUse" />
    <radialGradient
       inkscape:collect="always"
       xlink:href="#linearGradient3708"
       id="radialGradient3760"
       gradientUnits="userSpaceOnUse"
       cx="80"
       cy="80"
       fx="80"
       fy="80"
       r="88" />
    <radialGradient
       inkscape:collect="always"
       xlink:href="#linearGradient3764"
       id="radialGradient3762"
       gradientUnits="userSpaceOnUse"
       cx="80"
       cy="80"
       fx="80"
       fy="80"
       r="80" />
    <radialGradient
       inkscape:collect="always"
       xlink:href="#linearGradient3708"
       id="radialGradient3802"
       gradientUnits="userSpaceOnUse"
       cx="80"
       cy="80"
       fx="80"
       fy="80"
       r="88" />
    <radialGradient
       inkscape:collect="always"
       xlink:href="#linearGradient3810"
       id="radialGradient3804"
       gradientUnits="userSpaceOnUse"
       cx="80"
       cy="80"
       fx="80"
       fy="80"
       r="80" />
    <radialGradient
       inkscape:collect="always"
       xlink:href="#linearGradient3708"
       id="radialGradient3806"
       gradientUnits="userSpaceOnUse"
       cx="80"
       cy="80"
       fx="80"
       fy="80"
       r="88" />
    <radialGradient
       inkscape:collect="always"
       xlink:href="#linearGradient3824"
       id="radialGradient3808"
       gradientUnits="userSpaceOnUse"
       cx="80"
       cy="80"
       fx="80"
       fy="80"
       r="80" />
  </defs>
  <sodipodi:namedview
     id="base"
     pagecolor="#484848"
     bordercolor="#000000"
     borderopacity="0.14509804"
     inkscape:pageopacity="1"
     inkscape:pageshadow="2"
     inkscape:zoom="1"
     inkscape:cx="46.011364"
     inkscape:cy="178.21787"
     inkscape:document-units="px"
     inkscape:current-layer="layer1"
     showgrid="false"
     inkscape:showpageshadow="false"
     showborder="false"
     inkscape:window-width="1186"
     inkscape:window-height="1177"
     inkscape:window-x="0"
     inkscape:window-y="19"
     inkscape:window-maximized="0">
    <inkscape:grid
       type="xygrid"
       id="grid2816"
       empspacing="8"
       visible="true"
       enabled="true"
       snapvisiblegridlinesonly="true"
       color="#e8e8ff"
       opacity="0.03137255"
       empcolor="#999999"
       empopacity="0.09803922" />
  </sodipodi:namedview>
  <metadata
     id="metadata7">
    <rdf:RDF>
      <cc:Work
         rdf:about="">
        <dc:format>image/svg+xml</dc:format>
        <dc:type
           rdf:resource="http://purl.org/dc/dcmitype/StillImage" />
        <dc:title></dc:title>
      </cc:Work>
    </rdf:RDF>
  </metadata>
  <g
     inkscape:label="Layer 1"
     inkscape:groupmode="layer"
     id="layer1"
     transform="translate(8,-884.36218)">
    <path
       sodipodi:type="arc"
       style="fill:url(#radialGradient3706);fill-opacity:1;fill-rule:nonzero;stroke:none"
       id="path3646"
       sodipodi:cx="80"
       sodipodi:cy="80"
       sodipodi:rx="88"
       sodipodi:ry="88"
       d="m 168,80 c 0,48.60106 -39.39894,88 -88,88 -48.601058,0 -88,-39.39894 -88,-88 0,-48.601058 39.398942,-88 88,-88 48.60106,0 88,39.398942 88,88 z"
       transform="translate(0,892.36218)" />
    <path
       sodipodi:type="star"
       style="fill:#ffffff;fill-opacity:0.09803922;fill-rule:nonzero;stroke:none"
       id="path3660"
       sodipodi:sides="8"
       sodipodi:cx="80"
       sodipodi:cy="80"
       sodipodi:r1="80"
       sodipodi:r2="48"
       sodipodi:arg1="0"
       sodipodi:arg2="0.39269908"
       inkscape:flatsided="false"
       inkscape:rounded="0"
       inkscape:randomized="0"
       d="M 160,80 124.34622,98.368805 136.56854,136.56854 98.368805,124.34622 80,160 61.631195,124.34622 23.431458,136.56854 35.653782,98.368805 0,80 35.653782,61.631195 23.431458,23.431458 61.631195,35.653782 80,0 98.368805,35.653782 136.56854,23.431458 124.34622,61.631195 160,80 z"
       transform="translate(0,892.36218)" />
    <path
       style="fill:#ffffff;fill-opacity:0.09803922;fill-rule:nonzero;stroke:none"
       d="m 49.385322,898.45182 c -5.061508,2.09654 -9.798138,4.64809 -14.172171,7.59537 l 15.223625,36.75308 -36.706253,-15.20423 c -3.007492,4.46232 -5.5815556,9.20212 -7.6329945,14.15474 -2.051439,4.95261 -3.582849,10.12429 -4.6115675,15.40625 l 36.706253,15.20423 -36.7530823,15.22362 c 1.0088636,5.17695 2.5539554,10.33046 4.6505019,15.39202 2.0965465,5.0615 4.6480884,9.7981 7.5953674,14.1721 l 36.753083,-15.2236 -15.204239,36.7062 c 4.462315,3.0075 9.202127,5.5816 14.154754,7.6331 4.952627,2.0514 10.124289,3.5828 15.406233,4.6115 l 15.204247,-36.7062 15.223606,36.753 c 5.176965,-1.0088 10.330485,-2.5539 15.391995,-4.6504 5.06151,-2.0966 9.79813,-4.6481 14.17215,-7.5955 l -15.22361,-36.753 36.70624,15.2042 c 3.0075,-4.4623 5.58158,-9.2021 7.63301,-14.1547 2.05143,-4.95264 3.58282,-10.12435 4.61155,-15.40629 l -36.70624,-15.2042 36.75308,-15.22363 c -1.00887,-5.17694 -2.55395,-10.33046 -4.6505,-15.39197 -2.09655,-5.06151 -4.64809,-9.79815 -7.59537,-14.17217 l -36.75308,15.22362 15.20423,-36.70625 c -4.46233,-3.0075 -9.20212,-5.58156 -14.15474,-7.633 -4.95262,-2.05144 -10.12429,-3.58285 -15.406251,-4.61156 L 80.000921,930.5544 64.777296,893.80132 c -5.176949,1.00886 -10.330467,2.55395 -15.391974,4.6505 z"
       id="rect3664" />
    <path
       transform="matrix(0.8,0,0,0.8,16,908.36218)"
       d="m 160,80 c 0,44.18278 -35.81722,80 -80,80 C 35.81722,160 0,124.18278 0,80 0,35.81722 35.81722,0 80,0 c 44.18278,0 80,35.81722 80,80 z"
       sodipodi:ry="80"
       sodipodi:rx="80"
       sodipodi:cy="80"
       sodipodi:cx="80"
       id="path3648"
       style="fill:url(#radialGradient3690);fill-opacity:1;fill-rule:nonzero;stroke:none"
       sodipodi:type="arc" />
    <text
       xml:space="preserve"
       style="font-size:24px;font-style:normal;font-variant:normal;font-weight:normal;font-stretch:normal;text-align:center;line-height:100%;writing-mode:lr-tb;text-anchor:middle;fill:#090909;fill-opacity:1;fill-rule:nonzero;stroke:none;font-family:Monospace;-inkscape-font-specification:Monospace"
       x="80.087891"
       y="980.94031"
       id="text3726"
       sodipodi:linespacing="100%"><tspan
         sodipodi:role="line"
         id="tspan3728"
         x="80.087891"
         y="980.94031">Button</tspan></text>
    <path
       transform="translate(184.00092,892.36218)"
       d="m 168,80 c 0,48.60106 -39.39894,88 -88,88 -48.601058,0 -88,-39.39894 -88,-88 0,-48.601058 39.398942,-88 88,-88 48.60106,0 88,39.398942 88,88 z"
       sodipodi:ry="88"
       sodipodi:rx="88"
       sodipodi:cy="80"
       sodipodi:cx="80"
       id="path3748"
       style="fill:url(#radialGradient3760);fill-opacity:1;fill-rule:nonzero;stroke:none"
       sodipodi:type="arc" />
    <path
       transform="translate(184.00092,892.36218)"
       d="M 160,80 124.34622,98.368805 136.56854,136.56854 98.368805,124.34622 80,160 61.631195,124.34622 23.431458,136.56854 35.653782,98.368805 0,80 35.653782,61.631195 23.431458,23.431458 61.631195,35.653782 80,0 98.368805,35.653782 136.56854,23.431458 124.34622,61.631195 160,80 z"
       inkscape:randomized="0"
       inkscape:rounded="0"
       inkscape:flatsided="false"
       sodipodi:arg2="0.39269908"
       sodipodi:arg1="0"
       sodipodi:r2="48"
       sodipodi:r1="80"
       sodipodi:cy="80"
       sodipodi:cx="80"
       sodipodi:sides="8"
       id="path3750"
       style="fill:#ffffff;fill-opacity:0.09803922;fill-rule:nonzero;stroke:none"
       sodipodi:type="star" />
    <path
       id="path3752"
       d="m 233.38624,898.45182 c -5.06151,2.09654 -9.79813,4.64809 -14.17217,7.59537 l 15.22363,36.75308 -36.70626,-15.20423 c -3.00749,4.46232 -5.58155,9.20212 -7.63299,14.15474 -2.05144,4.95261 -3.58285,10.12429 -4.61157,15.40625 l 36.70625,15.20423 -36.75308,15.22362 c 1.00887,5.17695 2.55396,10.33046 4.6505,15.39202 2.09655,5.0615 4.64809,9.7981 7.59537,14.1721 l 36.75308,-15.2236 -15.20423,36.7062 c 4.46231,3.0075 9.20212,5.5816 14.15475,7.6331 4.95263,2.0514 10.12429,3.5828 15.40623,4.6115 L 264,1014.17 l 15.22361,36.753 c 5.17696,-1.0088 10.33048,-2.5539 15.39199,-4.6504 5.06151,-2.0966 9.79813,-4.6481 14.17215,-7.5955 l -15.22361,-36.753 36.70624,15.2042 c 3.0075,-4.4623 5.58158,-9.2021 7.63301,-14.1547 2.05143,-4.95264 3.58282,-10.12435 4.61155,-15.40629 l -36.70624,-15.2042 36.75308,-15.22363 c -1.00887,-5.17694 -2.55395,-10.33046 -4.6505,-15.39197 -2.09655,-5.06151 -4.64809,-9.79815 -7.59537,-14.17217 l -36.75308,15.22362 15.20423,-36.70625 c -4.46233,-3.0075 -9.20212,-5.58156 -14.15474,-7.633 -4.95262,-2.05144 -10.12429,-3.58285 -15.40625,-4.61156 l -15.20423,36.70625 -15.22362,-36.75308 c -5.17695,1.00886 -10.33047,2.55395 -15.39198,4.6505 z"
       style="fill:#ffffff;fill-opacity:0.09803922;fill-rule:nonzero;stroke:none" />
    <path
       sodipodi:type="arc"
       style="fill:url(#radialGradient3762);fill-opacity:1;fill-rule:nonzero;stroke:none"
       id="path3754"
       sodipodi:cx="80"
       sodipodi:cy="80"
       sodipodi:rx="80"
       sodipodi:ry="80"
       d="m 160,80 c 0,44.18278 -35.81722,80 -80,80 C 35.81722,160 0,124.18278 0,80 0,35.81722 35.81722,0 80,0 c 44.18278,0 80,35.81722 80,80 z"
       transform="matrix(0.8,0,0,0.8,200.00092,908.36218)" />
    <text
       sodipodi:linespacing="100%"
       id="text3756"
       y="980.94031"
       x="264.08881"
       style="font-size:24px;font-style:normal;font-variant:normal;font-weight:normal;font-stretch:normal;text-align:center;line-height:100%;writing-mode:lr-tb;text-anchor:middle;fill:#090909;fill-opacity:1;fill-rule:nonzero;stroke:none;font-family:Monospace;-inkscape-font-specification:Monospace"
       xml:space="preserve"><tspan
         y="980.94031"
         x="264.08881"
         id="tspan3758"
         sodipodi:role="line">Button</tspan></text>
    <path
       transform="translate(0,1076.3622)"
       d="m 168,80 c 0,48.60106 -39.39894,88 -88,88 -48.601058,0 -88,-39.39894 -88,-88 0,-48.601058 39.398942,-88 88,-88 48.60106,0 88,39.398942 88,88 z"
       sodipodi:ry="88"
       sodipodi:rx="88"
       sodipodi:cy="80"
       sodipodi:cx="80"
       id="path3778"
       style="fill:url(#radialGradient3802);fill-opacity:1;fill-rule:nonzero;stroke:none"
       sodipodi:type="arc" />
    <path
       transform="translate(0,1076.3622)"
       d="M 160,80 124.34622,98.368805 136.56854,136.56854 98.368805,124.34622 80,160 61.631195,124.34622 23.431458,136.56854 35.653782,98.368805 0,80 35.653782,61.631195 23.431458,23.431458 61.631195,35.653782 80,0 98.368805,35.653782 136.56854,23.431458 124.34622,61.631195 160,80 z"
       inkscape:randomized="0"
       inkscape:rounded="0"
       inkscape:flatsided="false"
       sodipodi:arg2="0.39269908"
       sodipodi:arg1="0"
       sodipodi:r2="48"
       sodipodi:r1="80"
       sodipodi:cy="80"
       sodipodi:cx="80"
       sodipodi:sides="8"
       id="path3780"
       style="fill:#ffffff;fill-opacity:0.09803922;fill-rule:nonzero;stroke:none"
       sodipodi:type="star" />
    <path
       id="path3782"
       d="m 49.385322,1082.4518 c -5.061508,2.0966 -9.798138,4.6481 -14.172171,7.5954 l 15.223625,36.7531 -36.706253,-15.2043 c -3.007492,4.4624 -5.5815556,9.2022 -7.6329945,14.1548 -2.051439,4.9526 -3.582849,10.1243 -4.6115675,15.4062 l 36.706253,15.2043 -36.7530823,15.2236 c 1.0088636,5.1769 2.5539554,10.3304 4.6505019,15.392 2.0965465,5.0615 4.6480884,9.7981 7.5953674,14.1721 l 36.753083,-15.2236 -15.204239,36.7062 c 4.462315,3.0075 9.202127,5.5816 14.154754,7.6331 4.952627,2.0514 10.124289,3.5828 15.406233,4.6115 l 15.204247,-36.7062 15.223606,36.753 c 5.176965,-1.0088 10.330485,-2.5539 15.391995,-4.6504 5.06151,-2.0966 9.79813,-4.6481 14.17215,-7.5955 l -15.22361,-36.753 36.70624,15.2042 c 3.0075,-4.4623 5.58158,-9.2021 7.63301,-14.1547 2.05143,-4.9526 3.58282,-10.1243 4.61155,-15.4063 l -36.70624,-15.2042 36.75308,-15.2236 c -1.00887,-5.177 -2.55395,-10.3305 -4.6505,-15.392 -2.09655,-5.0615 -4.64809,-9.7981 -7.59537,-14.1722 l -36.75308,15.2237 15.20423,-36.7063 c -4.46233,-3.0075 -9.20212,-5.5815 -14.15474,-7.633 -4.95262,-2.0514 -10.12429,-3.5828 -15.406251,-4.6116 l -15.204228,36.7063 -15.223625,-36.7531 c -5.176949,1.0089 -10.330467,2.554 -15.391974,4.6505 z"
       style="fill:#ffffff;fill-opacity:0.09803922;fill-rule:nonzero;stroke:none" />
    <path
       sodipodi:type="arc"
       style="fill:url(#radialGradient3804);fill-opacity:1;fill-rule:nonzero;stroke:none"
       id="path3784"
       sodipodi:cx="80"
       sodipodi:cy="80"
       sodipodi:rx="80"
       sodipodi:ry="80"
       d="m 160,80 c 0,44.18278 -35.81722,80 -80,80 C 35.81722,160 0,124.18278 0,80 0,35.81722 35.81722,0 80,0 c 44.18278,0 80,35.81722 80,80 z"
       transform="matrix(0.8,0,0,0.8,16,1092.3622)" />
    <text
       sodipodi:linespacing="100%"
       id="text3786"
       y="1164.9403"
       x="80.087891"
       style="font-size:24px;font-style:normal;font-variant:normal;font-weight:normal;font-stretch:normal;text-align:center;line-height:100%;writing-mode:lr-tb;text-anchor:middle;fill:#090909;fill-opacity:1;fill-rule:nonzero;stroke:none;font-family:Monospace;-inkscape-font-specification:Monospace"
       xml:space="preserve"><tspan
         y="1164.9403"
         x="80.087891"
         id="tspan3788"
         sodipodi:role="line">Button</tspan></text>
    <path
       sodipodi:type="arc"
       style="fill:url(#radialGradient3806);fill-opacity:1;fill-rule:nonzero;stroke:none"
       id="path3790"
       sodipodi:cx="80"
       sodipodi:cy="80"
       sodipodi:rx="88"
       sodipodi:ry="88"
       d="m 168,80 c 0,48.60106 -39.39894,88 -88,88 -48.601058,0 -88,-39.39894 -88,-88 0,-48.601058 39.398942,-88 88,-88 48.60106,0 88,39.398942 88,88 z"
       transform="translate(184.00092,1076.3622)" />
    <path
       sodipodi:type="star"
       style="fill:#ffffff;fill-opacity:0.09803922;fill-rule:nonzero;stroke:none"
       id="path3792"
       sodipodi:sides="8"
       sodipodi:cx="80"
       sodipodi:cy="80"
       sodipodi:r1="80"
       sodipodi:r2="48"
       sodipodi:arg1="0"
       sodipodi:arg2="0.39269908"
       inkscape:flatsided="false"
       inkscape:rounded="0"
       inkscape:randomized="0"
       d="M 160,80 124.34622,98.368805 136.56854,136.56854 98.368805,124.34622 80,160 61.631195,124.34622 23.431458,136.56854 35.653782,98.368805 0,80 35.653782,61.631195 23.431458,23.431458 61.631195,35.653782 80,0 98.368805,35.653782 136.56854,23.431458 124.34622,61.631195 160,80 z"
       transform="translate(184.00092,1076.3622)" />
    <path
       style="fill:#ffffff;fill-opacity:0.09803922;fill-rule:nonzero;stroke:none"
       d="m 233.38624,1082.4518 c -5.06151,2.0966 -9.79813,4.6481 -14.17217,7.5954 l 15.22363,36.7531 -36.70626,-15.2043 c -3.00749,4.4624 -5.58155,9.2022 -7.63299,14.1548 -2.05144,4.9526 -3.58285,10.1243 -4.61157,15.4062 l 36.70625,15.2043 -36.75308,15.2236 c 1.00887,5.1769 2.55396,10.3304 4.6505,15.392 2.09655,5.0615 4.64809,9.7981 7.59537,14.1721 l 36.75308,-15.2236 -15.20423,36.7062 c 4.46231,3.0075 9.20212,5.5816 14.15475,7.6331 4.95263,2.0514 10.12429,3.5828 15.40623,4.6115 L 264,1198.17 l 15.22361,36.753 c 5.17696,-1.0088 10.33048,-2.5539 15.39199,-4.6504 5.06151,-2.0966 9.79813,-4.6481 14.17215,-7.5955 l -15.22361,-36.753 36.70624,15.2042 c 3.0075,-4.4623 5.58158,-9.2021 7.63301,-14.1547 2.05143,-4.9526 3.58282,-10.1243 4.61155,-15.4063 l -36.70624,-15.2042 36.75308,-15.2236 c -1.00887,-5.177 -2.55395,-10.3305 -4.6505,-15.392 -2.09655,-5.0615 -4.64809,-9.7981 -7.59537,-14.1722 l -36.75308,15.2237 15.20423,-36.7063 c -4.46233,-3.0075 -9.20212,-5.5815 -14.15474,-7.633 -4.95262,-2.0514 -10.12429,-3.5828 -15.40625,-4.6116 l -15.20423,36.7063 -15.22362,-36.7531 c -5.17695,1.0089 -10.33047,2.554 -15.39198,4.6505 z"
       id="path3794" />
    <path
       transform="matrix(0.8,0,0,0.8,200.00092,1092.3622)"
       d="m 160,80 c 0,44.18278 -35.81722,80 -80,80 C 35.81722,160 0,124.18278 0,80 0,35.81722 35.81722,0 80,0 c 44.18278,0 80,35.81722 80,80 z"
       sodipodi:ry="80"
       sodipodi:rx="80"
       sodipodi:cy="80"
       sodipodi:cx="80"
       id="path3796"
       style="fill:url(#radialGradient3808);fill-opacity:1;fill-rule:nonzero;stroke:none"
       sodipodi:type="arc" />
    <text
       xml:space="preserve"
       style="font-size:24px;font-style:normal;font-variant:normal;font-weight:normal;font-stretch:normal;text-align:center;line-height:100%;writing-mode:lr-tb;text-anchor:middle;fill:#090909;fill-opacity:1;fill-rule:nonzero;stroke:none;font-family:Monospace;-inkscape-font-specification:Monospace"
       x="264.08881"
       y="1164.9403"
       id="text3798"
       sodipodi:linespacing="100%"><tspan
         sodipodi:role="line"
         id="tspan3800"
         x="264.08881"
         y="1164.9403">Button</tspan></text>
  </g>
</svg>
